<svg xmlns="http://www.w3.org/2000/svg" viewBox="0 0 32 32" width="32" height="32">
  <rect width="32" height="32" rx="6" fill="#080C10"/>
  <rect width="32" height="32" rx="6" fill="#1F5C99" opacity="0.15"/>
  <!-- O letterform - clean geometric -->
  <path d="M16 7 C10.48 7 6 11.48 6 17 C6 22.52 10.48 27 16 27 C21.52 27 26 22.52 26 17 C26 11.48 21.52 7 16 7 Z M16 22 C13.24 22 11 19.76 11 17 C11 14.24 13.24 12 16 12 C18.76 12 21 14.24 21 17 C21 19.76 18.76 22 16 22 Z" fill="#2B7FD4"/>
  <!-- Centre pulse dot -->
  <circle cx="16" cy="17" r="2.5" fill="#5BA3E8"/>
</svg>
